<?xml version="1.0" encoding="UTF-8"?>
<svg width="133px" height="35px" viewBox="0 0 133 35" version="1.1" xmlns="http://www.w3.org/2000/svg" xmlns:xlink="http://www.w3.org/1999/xlink">
    <!-- Generator: Sketch 49.1 (51147) - http://www.bohemiancoding.com/sketch -->
    <title>podlive</title>
    <desc>Created with Sketch.</desc>
    <defs>
        <linearGradient x1="943.203387%" y1="524.47358%" x2="943.203387%" y2="-424.565024%" id="linearGradient-1">
            <stop stop-color="#6F31D1" offset="0%"></stop>
            <stop stop-color="#AC00CC" offset="100%"></stop>
        </linearGradient>
        <linearGradient x1="765.796467%" y1="298.144537%" x2="765.796467%" y2="-199.409802%" id="linearGradient-2">
            <stop stop-color="#6F31D1" offset="0%"></stop>
            <stop stop-color="#AC00CC" offset="100%"></stop>
        </linearGradient>
        <linearGradient x1="586.889213%" y1="515.991035%" x2="586.889213%" y2="-419.499123%" id="linearGradient-3">
            <stop stop-color="#6F31D1" offset="0%"></stop>
            <stop stop-color="#AC00CC" offset="100%"></stop>
        </linearGradient>
        <linearGradient x1="408.908147%" y1="298.812571%" x2="408.908147%" y2="-200.063659%" id="linearGradient-4">
            <stop stop-color="#6F31D1" offset="0%"></stop>
            <stop stop-color="#AC00CC" offset="100%"></stop>
        </linearGradient>
        <linearGradient x1="229.54519%" y1="144.478031%" x2="229.54519%" y2="-45.1895317%" id="linearGradient-5">
            <stop stop-color="#6F31D1" offset="0%"></stop>
            <stop stop-color="#AC00CC" offset="100%"></stop>
        </linearGradient>
        <linearGradient x1="51.2721755%" y1="114.023372%" x2="51.2721755%" y2="-14.1903172%" id="linearGradient-6">
            <stop stop-color="#6F31D1" offset="0%"></stop>
            <stop stop-color="#AC00CC" offset="100%"></stop>
        </linearGradient>
        <linearGradient x1="-127.009534%" y1="520.741909%" x2="-127.009534%" y2="-425.432123%" id="linearGradient-7">
            <stop stop-color="#6F31D1" offset="0%"></stop>
            <stop stop-color="#AC00CC" offset="100%"></stop>
        </linearGradient>
        <linearGradient x1="-306.363796%" y1="187.310902%" x2="-306.363796%" y2="-88.0013335%" id="linearGradient-8">
            <stop stop-color="#6F31D1" offset="0%"></stop>
            <stop stop-color="#AC00CC" offset="100%"></stop>
        </linearGradient>
        <linearGradient x1="-484.346939%" y1="139.654424%" x2="-484.346939%" y2="-39.6717024%" id="linearGradient-9">
            <stop stop-color="#6F31D1" offset="0%"></stop>
            <stop stop-color="#AC00CC" offset="100%"></stop>
        </linearGradient>
        <linearGradient x1="-663.999767%" y1="239.352111%" x2="-663.999767%" y2="-141.700447%" id="linearGradient-10">
            <stop stop-color="#6F31D1" offset="0%"></stop>
            <stop stop-color="#AC00CC" offset="100%"></stop>
        </linearGradient>
        <linearGradient x1="-843.203387%" y1="523.329297%" x2="-843.203387%" y2="-425.709307%" id="linearGradient-11">
            <stop stop-color="#6F31D1" offset="0%"></stop>
            <stop stop-color="#AC00CC" offset="100%"></stop>
        </linearGradient>
    </defs>
    <g id="Page-1" stroke="none" stroke-width="1" fill="none" fill-rule="evenodd">
        <g id="podlive">
            <path d="M132.781,9.079 C132.781,8.749 132.781,8.419 132.777,8.089 C132.753,7.369 132.71,6.648 132.579,5.937 C132.456,5.216 132.241,4.544 131.912,3.89 C131.58,3.246 131.153,2.656 130.641,2.147 C130.134,1.638 129.544,1.21 128.903,0.881 C128.243,0.548 127.573,0.332 126.851,0.206 C126.145,0.078 125.422,0.035 124.702,0.017 C124.373,0.012 124.038,0.006 123.71,0.003 C123.324,0 122.932,0 122.546,0 L10.25,0 C9.857,0 9.467,0 9.074,0.002 C8.745,0.005 8.418,0.011 8.086,0.016 C7.37,0.035 6.646,0.078 5.932,0.206 C5.212,0.333 4.543,0.548 3.888,0.881 C3.244,1.21 2.656,1.639 2.148,2.148 C1.633,2.656 1.207,3.246 0.881,3.89 C0.547,4.544 0.334,5.216 0.209,5.937 C0.079,6.648 0.035,7.369 0.016,8.089 C0.006,8.419 0.005,8.749 0,9.079 C0,9.469 0,9.859 0,10.252 L0,23.761 C0,24.158 0,24.547 0,24.938 C0.005,25.271 0.006,25.596 0.016,25.928 C0.034,26.649 0.079,27.37 0.209,28.081 C0.334,28.802 0.547,29.476 0.881,30.128 C1.207,30.769 1.633,31.359 2.147,31.864 C2.656,32.377 3.243,32.805 3.888,33.13 C4.543,33.467 5.212,33.679 5.932,33.809 C6.646,33.938 7.37,33.98 8.086,34 C8.418,34.007 8.745,34.011 9.074,34.011 C9.467,34.013 9.857,34.013 10.251,34.013 L122.546,34.013 C122.932,34.013 123.324,34.013 123.711,34.011 C124.039,34.011 124.373,34.007 124.703,34 C125.423,33.98 126.146,33.938 126.852,33.809 C127.574,33.679 128.244,33.467 128.904,33.13 C129.546,32.804 130.136,32.377 130.642,31.864 C131.154,31.359 131.581,30.769 131.913,30.128 C132.242,29.476 132.456,28.802 132.58,28.081 C132.711,27.37 132.754,26.649 132.778,25.928 C132.782,25.596 132.782,25.271 132.782,24.938 C132.792,24.547 132.792,24.159 132.792,23.761 L132.792,10.253 C132.791,9.86 132.791,9.469 132.781,9.079 Z" id="XMLID_43_" fill="#777878" fill-rule="nonzero"></path>
            <path d="M132.125,23.761 C132.125,24.153 132.125,24.536 132.116,24.938 C132.116,25.266 132.116,25.591 132.111,25.908 C132.093,26.529 132.054,27.258 131.924,27.968 C131.809,28.638 131.611,29.247 131.321,29.823 C131.017,30.408 130.633,30.938 130.169,31.399 C129.711,31.858 129.184,32.243 128.599,32.542 C128.03,32.832 127.418,33.033 126.734,33.157 C126.024,33.282 125.299,33.318 124.689,33.337 C124.361,33.343 124.033,33.348 123.706,33.348 C123.32,33.35 122.929,33.35 122.545,33.35 L10.25,33.35 C9.858,33.35 9.469,33.35 9.073,33.348 C8.748,33.348 8.426,33.344 8.105,33.337 C7.488,33.319 6.762,33.283 6.047,33.157 C5.365,33.034 4.757,32.832 4.189,32.542 C3.609,32.248 3.082,31.861 2.614,31.393 C2.155,30.938 1.772,30.411 1.472,29.826 C1.182,29.255 0.983,28.648 0.861,27.961 C0.727,27.225 0.694,26.48 0.68,25.908 C0.672,25.681 0.669,25.452 0.667,25.223 L0.663,24.938 L0.663,23.761 L0.663,10.253 L0.663,9.088 L0.669,8.79 C0.671,8.564 0.674,8.336 0.682,8.105 C0.696,7.538 0.729,6.793 0.864,6.052 C0.984,5.367 1.183,4.76 1.475,4.19 C1.773,3.603 2.156,3.076 2.619,2.618 C3.083,2.154 3.611,1.77 4.191,1.473 C4.766,1.181 5.375,0.978 6.047,0.859 C6.777,0.73 7.529,0.697 8.097,0.679 L9.074,0.665 C9.468,0.662 9.858,0.662 10.249,0.662 L122.544,0.662 C122.928,0.662 123.319,0.662 123.703,0.665 L123.757,0.667 L124.681,0.679 C125.256,0.696 126.008,0.73 126.732,0.859 C127.408,0.978 128.017,1.18 128.597,1.473 C129.181,1.771 129.709,2.155 130.168,2.618 C130.63,3.079 131.014,3.607 131.315,4.189 C131.608,4.768 131.807,5.378 131.921,6.058 C132.051,6.759 132.09,7.49 132.108,8.103 C132.113,8.428 132.113,8.754 132.113,9.092 C132.122,9.479 132.122,9.863 132.122,10.252 L132.122,23.761 L132.125,23.761 Z" id="XMLID_42_" fill="#FFFFFF" fill-rule="nonzero"></path>
            <path d="M34.2373047,17.1357422 L38.0996094,17.1357422 C40.0273438,17.1357422 41.3535156,18.46875 41.3535156,20.4238281 C41.3535156,22.3515625 39.9863281,23.6777344 38.0517578,23.6777344 L35.7685547,23.6777344 L35.7685547,27 L34.2373047,27 L34.2373047,17.1357422 Z M35.7685547,18.4892578 L35.7685547,22.3310547 L37.6962891,22.3310547 C39.015625,22.3310547 39.7880859,21.6474609 39.7880859,20.4238281 C39.7880859,19.1728516 39.0429688,18.4892578 37.6962891,18.4892578 L35.7685547,18.4892578 Z M45.7921537,27.1435547 C43.6114896,27.1435547 42.2784818,25.6875 42.2784818,23.2744141 C42.2784818,20.875 43.6183255,19.4121094 45.7921537,19.4121094 C47.9591458,19.4121094 49.2989896,20.875 49.2989896,23.2744141 C49.2989896,25.6875 47.9659818,27.1435547 45.7921537,27.1435547 Z M45.7921537,25.8378906 C47.063638,25.8378906 47.7882474,24.8945312 47.7882474,23.2744141 C47.7882474,21.6611328 47.063638,20.7177734 45.7921537,20.7177734 C44.5138333,20.7177734 43.7960599,21.6611328 43.7960599,23.2744141 C43.7960599,24.9013672 44.5138333,25.8378906 45.7921537,25.8378906 Z M53.4846979,27.1230469 C51.5911433,27.1230469 50.3948542,25.6328125 50.3948542,23.2744141 C50.3948542,20.9228516 51.6048151,19.4326172 53.4846979,19.4326172 C54.5032526,19.4326172 55.3645808,19.9179688 55.7679011,20.7382812 L55.8772761,20.7382812 L55.8772761,16.6503906 L57.3470026,16.6503906 L57.3470026,27 L55.9387995,27 L55.9387995,25.8242188 L55.8225886,25.8242188 C55.3782526,26.6376953 54.5100886,27.1230469 53.4846979,27.1230469 Z M53.9016901,20.7519531 C52.6643854,20.7519531 51.9124323,21.7089844 51.9124323,23.2744141 C51.9124323,24.8535156 52.6575495,25.8037109 53.9016901,25.8037109 C55.1389948,25.8037109 55.9046198,24.8398438 55.9046198,23.28125 C55.9046198,21.7294922 55.1321589,20.7519531 53.9016901,20.7519531 Z M59.3178672,27 L59.3178672,16.6503906 L60.7875938,16.6503906 L60.7875938,27 L59.3178672,27 Z M62.7174428,27 L62.7174428,19.5556641 L64.1803334,19.5556641 L64.1803334,27 L62.7174428,27 Z M63.4488881,18.25 C62.9020131,18.25 62.4986928,17.8603516 62.4986928,17.3544922 C62.4986928,16.8417969 62.9020131,16.4521484 63.4488881,16.4521484 C63.9957631,16.4521484 64.3990834,16.8417969 64.3990834,17.3544922 C64.3990834,17.8603516 63.9957631,18.25 63.4488881,18.25 Z M72.3445573,19.5556641 L69.6648698,27 L68.0857683,27 L65.3992448,19.5556641 L66.9715105,19.5556641 L68.8240495,25.4277344 L68.9402605,25.4277344 L70.7859636,19.5556641 L72.3445573,19.5556641 Z M76.3046798,20.6630859 C75.2177657,20.6630859 74.4589766,21.4287109 74.3769454,22.5908203 L78.136711,22.5908203 C78.1025313,21.421875 77.3915938,20.6630859 76.3046798,20.6630859 Z M78.1298751,24.9902344 L79.5449141,24.9902344 C79.2099532,26.3232422 78.0205001,27.1435547 76.3183516,27.1435547 C74.1855391,27.1435547 72.8798751,25.6806641 72.8798751,23.3017578 C72.8798751,20.9228516 74.2128829,19.4121094 76.3115157,19.4121094 C78.3828048,19.4121094 79.6337813,20.8271484 79.6337813,23.1650391 L79.6337813,23.6777344 L74.3769454,23.6777344 L74.3769454,23.7597656 C74.4247969,25.0654297 75.183586,25.8925781 76.3593673,25.8925781 C77.2480391,25.8925781 77.8564376,25.5712891 78.1298751,24.9902344 Z" id="Podlive-Copy" fill="#000000"></path>
            <path d="M37.6582031,12.2880859 L37.6582031,13 L33.8085938,13 L33.8085938,6.65869141 L34.5996094,6.65869141 L34.5996094,12.2880859 L37.6582031,12.2880859 Z M38.520332,13 L38.520332,8.26269531 L39.2761914,8.26269531 L39.2761914,13 L38.520332,13 Z M38.8982617,7.30029297 C38.6082227,7.30029297 38.370918,7.06298828 38.370918,6.77294922 C38.370918,6.48291016 38.6082227,6.24560547 38.8982617,6.24560547 C39.1883008,6.24560547 39.4256055,6.48291016 39.4256055,6.77294922 C39.4256055,7.06298828 39.1883008,7.30029297 38.8982617,7.30029297 Z M44.2647852,8.26269531 L42.5113672,13 L41.7379297,13 L39.9845117,8.26269531 L40.7931055,8.26269531 L42.0894922,12.1650391 L42.1598047,12.1650391 L43.4561914,8.26269531 L44.2647852,8.26269531 Z M46.6693946,8.84716797 C45.9135352,8.84716797 45.3861914,9.40087891 45.3290625,10.2402344 L47.9394141,10.2402344 C47.921836,9.40087891 47.4208594,8.84716797 46.6693946,8.84716797 Z M47.9174414,11.7739258 L48.6733008,11.7739258 C48.4447852,12.5869141 47.715293,13.0834961 46.6781836,13.0834961 C45.3642188,13.0834961 44.5424414,12.1342773 44.5424414,10.6357422 C44.5424414,9.14599609 45.3774024,8.17919922 46.6781836,8.17919922 C47.9569922,8.17919922 48.7348242,9.08886719 48.7348242,10.5610352 L48.7348242,10.8510742 L45.3290625,10.8510742 L45.3290625,10.8862305 C45.3686133,11.8222656 45.8915625,12.4155273 46.6957617,12.4155273 C47.3066016,12.4155273 47.7196875,12.1914062 47.9174414,11.7739258 Z M56.9805664,13 L56.1895508,13 L56.1895508,10.112793 L52.7090821,10.112793 L52.7090821,13 L51.9180664,13 L51.9180664,6.65869141 L52.7090821,6.65869141 L52.7090821,9.40087891 L56.1895508,9.40087891 L56.1895508,6.65869141 L56.9805664,6.65869141 L56.9805664,13 Z M60.1278516,13.0834961 C58.7787305,13.0834961 57.9437696,12.1518555 57.9437696,10.6313477 C57.9437696,9.10644531 58.7787305,8.17919922 60.1278516,8.17919922 C61.4769727,8.17919922 62.3119336,9.10644531 62.3119336,10.6313477 C62.3119336,12.1518555 61.4769727,13.0834961 60.1278516,13.0834961 Z M60.1278516,12.4023438 C61.024336,12.4023438 61.5297071,11.7519531 61.5297071,10.6313477 C61.5297071,9.50634766 61.024336,8.86035156 60.1278516,8.86035156 C59.2313672,8.86035156 58.7259961,9.50634766 58.7259961,10.6313477 C58.7259961,11.7519531 59.2313672,12.4023438 60.1278516,12.4023438 Z M59.2401563,7.60351562 C58.9457227,7.60351562 58.708418,7.36621094 58.708418,7.07177734 C58.708418,6.77734375 58.9457227,6.54003906 59.2401563,6.54003906 C59.5345899,6.54003906 59.7718946,6.77734375 59.7718946,7.07177734 C59.7718946,7.36621094 59.5345899,7.60351562 59.2401563,7.60351562 Z M61.0155469,7.60351562 C60.7211133,7.60351562 60.4838086,7.36621094 60.4838086,7.07177734 C60.4838086,6.77734375 60.7211133,6.54003906 61.0155469,6.54003906 C61.3099805,6.54003906 61.5472852,6.77734375 61.5472852,7.07177734 C61.5472852,7.36621094 61.3099805,7.60351562 61.0155469,7.60351562 Z M63.1784571,13 L63.1784571,8.26269531 L63.8991602,8.26269531 L63.8991602,8.96582031 L63.9694727,8.96582031 C64.1100977,8.50439453 64.6550196,8.17919922 65.2834376,8.17919922 C65.4064844,8.17919922 65.5646876,8.18798828 65.6613672,8.20117188 L65.6613672,8.95703125 C65.5998438,8.93945312 65.3273829,8.91308594 65.1779688,8.91308594 C64.4572657,8.91308594 63.9343165,9.39648438 63.9343165,10.0644531 L63.9343165,13 L63.1784571,13 Z M68.044004,8.84716797 C67.2881446,8.84716797 66.7608008,9.40087891 66.7036719,10.2402344 L69.3140235,10.2402344 C69.2964454,9.40087891 68.7954688,8.84716797 68.044004,8.84716797 Z M69.2920508,11.7739258 L70.0479102,11.7739258 C69.8193946,12.5869141 69.0899024,13.0834961 68.052793,13.0834961 C66.7388282,13.0834961 65.9170508,12.1342773 65.9170508,10.6357422 C65.9170508,9.14599609 66.7520118,8.17919922 68.052793,8.17919922 C69.3316016,8.17919922 70.1094337,9.08886719 70.1094337,10.5610352 L70.1094337,10.8510742 L66.7036719,10.8510742 L66.7036719,10.8862305 C66.7432227,11.8222656 67.2661719,12.4155273 68.0703712,12.4155273 C68.681211,12.4155273 69.0942969,12.1914062 69.2920508,11.7739258 Z M70.9759571,13 L70.9759571,8.26269531 L71.6966602,8.26269531 L71.6966602,9.00976562 L71.7669727,9.00976562 C72.0042774,8.48681641 72.4657032,8.17919922 73.1908008,8.17919922 C74.2542774,8.17919922 74.8475391,8.80761719 74.8475391,9.93261719 L74.8475391,13 L74.0916798,13 L74.0916798,10.1171875 C74.0916798,9.26464844 73.7313282,8.86035156 72.9754688,8.86035156 C72.2196094,8.86035156 71.7318165,9.36572266 71.7318165,10.1962891 L71.7318165,13 L70.9759571,13 Z M78.127461,13 L78.127461,8.26269531 L78.8481641,8.26269531 L78.8481641,9.00976562 L78.9184766,9.00976562 C79.1338087,8.48242188 79.608418,8.17919922 80.2412305,8.17919922 C80.8828321,8.17919922 81.3310743,8.51757812 81.5508009,9.00976562 L81.6211134,9.00976562 C81.8759962,8.50878906 82.4165235,8.17919922 83.0713087,8.17919922 C84.0381055,8.17919922 84.5786329,8.73291016 84.5786329,9.72607422 L84.5786329,13 L83.8227735,13 L83.8227735,9.90185547 C83.8227735,9.203125 83.4931837,8.86035156 82.8252149,8.86035156 C82.1660352,8.86035156 81.7265821,9.35253906 81.7265821,9.95458984 L81.7265821,13 L80.9707227,13 L80.9707227,9.78320312 C80.9707227,9.22070312 80.5796095,8.86035156 79.9819532,8.86035156 C79.3623243,8.86035156 78.8833204,9.39648438 78.8833204,10.0644531 L78.8833204,13 L78.127461,13 Z M85.6560938,13 L85.6560938,8.26269531 L86.4119532,8.26269531 L86.4119532,13 L85.6560938,13 Z M86.0340235,7.30029297 C85.7439845,7.30029297 85.5066798,7.06298828 85.5066798,6.77294922 C85.5066798,6.48291016 85.7439845,6.24560547 86.0340235,6.24560547 C86.3240626,6.24560547 86.5613673,6.48291016 86.5613673,6.77294922 C86.5613673,7.06298828 86.3240626,7.30029297 86.0340235,7.30029297 Z M87.8497657,7.03662109 L88.6056251,7.03662109 L88.6056251,8.26269531 L89.6603126,8.26269531 L89.6603126,8.89550781 L88.6056251,8.89550781 L88.6056251,11.5761719 C88.6056251,12.1342773 88.8165626,12.371582 89.3087501,12.371582 C89.4449806,12.371582 89.5196876,12.3671875 89.6603126,12.3540039 L89.6603126,12.9912109 C89.5108985,13.0175781 89.365879,13.0351562 89.2164649,13.0351562 C88.240879,13.0351562 87.8497657,12.6748047 87.8497657,11.7695312 L87.8497657,8.89550781 L87.0851173,8.89550781 L87.0851173,8.26269531 L87.8497657,8.26269531 L87.8497657,7.03662109 Z" id="Live-Hören-mit-Copy" fill="#777878"></path>
            <g id="App-Icon" transform="translate(7.000000, 6.000000)">
                <rect id="App-Icon-Mask-1536x1536" fill="#FFFFFF" x="0" y="0" width="23" height="23"></rect>
                <rect id="Rectangle-2" fill="#FFFFFF" x="0" y="0" width="23" height="23"></rect>
                <g id="AppIcon" stroke-width="1" transform="translate(2.815104, 3.458984)">
                    <path d="M0.943359375,7.33927055 C0.943359375,7.1232693 0.758213562,6.94791667 0.530148961,6.94791667 L0.413210414,6.94791667 C0.185145813,6.94791667 0,7.1232693 0,7.33927055 L0,8.66789091 C0,8.88386607 0.185145813,9.05924479 0.413210414,9.05924479 L0.530148961,9.05924479 C0.758213562,9.05924479 0.943359375,8.88386607 0.943359375,8.66789091 L0.943359375,7.33927055 Z" id="Rectangle-1-copy" fill="url(#linearGradient-1)"></path>
                    <path d="M2.515625,6.41345389 C2.515625,6.18779749 2.33047919,6.00455729 2.10241459,6.00455729 L1.98547604,6.00455729 C1.75741144,6.00455729 1.57226562,6.18779749 1.57226562,6.41345389 L1.57226562,9.80334299 C1.57226562,10.0290266 1.75741144,10.2122396 1.98547604,10.2122396 L2.10241459,10.2122396 C2.33047919,10.2122396 2.515625,10.0290266 2.515625,9.80334299 L2.515625,6.41345389 Z" id="Rectangle-1-copy-3" fill="url(#linearGradient-2)"></path>
                    <path d="M4.20768229,7.3336836 C4.20768229,7.12079169 4.02283336,6.94791667 3.79513446,6.94791667 L3.67687075,6.94791667 C3.44917185,6.94791667 3.26432292,7.12079169 3.26432292,7.3336836 L3.26432292,8.67347786 C3.26432292,8.88636977 3.44917185,9.05924479 3.67687075,9.05924479 L3.79513446,9.05924479 C4.02283336,9.05924479 4.20768229,8.88636977 4.20768229,8.67347786 L4.20768229,7.3336836 Z" id="Rectangle-1-copy-4" fill="url(#linearGradient-3)"></path>
                    <path d="M5.88476562,6.41454024 C5.88476562,6.18825698 5.69976567,6.00455729 5.47188074,6.00455729 L5.35429113,6.00455729 C5.1264062,6.00455729 4.94140625,6.18825698 4.94140625,6.41454024 L4.94140625,9.80225664 C4.94140625,10.0285399 5.1264062,10.2122396 5.35429113,10.2122396 L5.47188074,10.2122396 C5.69976567,10.2122396 5.88476562,10.0285399 5.88476562,9.80225664 L5.88476562,6.41454024 Z" id="Rectangle-1-copy-5" fill="url(#linearGradient-4)"></path>
                    <path d="M7.47200521,3.04090382 C7.47200521,2.81710194 7.28712877,2.63541667 7.05945738,2.63541667 L6.94119366,2.63541667 C6.71349477,2.63541667 6.52864583,2.81710194 6.52864583,3.04090382 L6.52864583,13.1758931 C6.52864583,13.3996679 6.71349477,13.5813802 6.94119366,13.5813802 L7.05945738,13.5813802 C7.28712877,13.5813802 7.47200521,13.3996679 7.47200521,13.1758931 L7.47200521,3.04090382 Z" id="Rectangle-1-copy-6" fill="url(#linearGradient-5)"></path>
                    <path d="M9.14908854,0.403471932 C9.14908854,0.180782324 8.96408859,0 8.73620366,0 L8.61861405,0 C8.39072912,0 8.20572917,0.180782324 8.20572917,0.403471932 L8.20572917,15.7085072 C8.20572917,15.9311968 8.39072912,16.1119792 8.61861405,16.1119792 L8.73620366,16.1119792 C8.96408859,16.1119792 9.14908854,15.9311968 9.14908854,15.7085072 L9.14908854,0.403471932 Z" id="Rectangle-1-copy-7" fill="url(#linearGradient-6)"></path>
                    <path d="M10.7363281,7.33808929 C10.7363281,7.12274001 10.5514738,6.94791667 10.3237683,6.94791667 L10.2055286,6.94791667 C9.97782307,6.94791667 9.79296875,7.12274001 9.79296875,7.33808929 L9.79296875,8.66907217 C9.79296875,8.88439543 9.97782307,9.05924479 10.2055286,9.05924479 L10.3237683,9.05924479 C10.5514738,9.05924479 10.7363281,8.88439543 10.7363281,8.66907217 L10.7363281,7.33808929 Z" id="Rectangle-1-copy-8" fill="url(#linearGradient-7)"></path>
                    <path d="M12.4134115,4.71992032 C12.4134115,4.49507863 12.2284115,4.3125 12.0005266,4.3125 L11.882937,4.3125 C11.655052,4.3125 11.4700521,4.49507863 11.4700521,4.71992032 L11.4700521,11.4819026 C11.4700521,11.7067715 11.655052,11.8893229 11.882937,11.8893229 L12.0005266,11.8893229 C12.2284115,11.8893229 12.4134115,11.7067715 12.4134115,11.4819026 L12.4134115,4.71992032 Z" id="Rectangle-1-copy-9" fill="url(#linearGradient-8)"></path>
                    <path d="M14.1054688,2.61840467 C14.1054688,2.39638461 13.9206198,2.21614583 13.6929209,2.21614583 L13.5746572,2.21614583 C13.3469858,2.21614583 13.1621094,2.39638461 13.1621094,2.61840467 L13.1621094,13.298913 C13.1621094,13.5209063 13.3469858,13.7011719 13.5746572,13.7011719 L13.6929209,13.7011719 C13.9206198,13.7011719 14.1054688,13.5209063 14.1054688,13.298913 L14.1054688,2.61840467 Z" id="Rectangle-1-copy-10" fill="url(#linearGradient-9)"></path>
                    <path d="M15.7825521,5.77573026 C15.7825521,5.5549132 15.5975521,5.37565104 15.3696672,5.37565104 L15.2520776,5.37565104 C15.0241927,5.37565104 14.8391927,5.5549132 14.8391927,5.77573026 L14.8391927,10.3512229 C14.8391927,10.5720399 15.0241927,10.7513021 15.2520776,10.7513021 L15.3696672,10.7513021 C15.5975521,10.7513021 15.7825521,10.5720399 15.7825521,10.3512229 L15.7825521,5.77573026 Z" id="Rectangle-1-copy-11" fill="url(#linearGradient-10)"></path>
                    <path d="M17.3697917,7.33927055 C17.3697917,7.12329539 17.1846459,6.94791667 16.9565813,6.94791667 L16.8396427,6.94791667 C16.6115781,6.94791667 16.4264323,7.12329539 16.4264323,7.33927055 L16.4264323,8.66789091 C16.4264323,8.88389216 16.6115781,9.05924479 16.8396427,9.05924479 L16.9565813,9.05924479 C17.1846459,9.05924479 17.3697917,8.88389216 17.3697917,8.66789091 L17.3697917,7.33927055 Z" id="Rectangle-1-copy-12" fill="url(#linearGradient-11)"></path>
                </g>
            </g>
            <path d="M28.95,25.409 C28.732,25.962 28.23,26.74 27.518,27.289 C27.107,27.606 26.616,27.908 25.941,28.108 C25.222,28.321 24.337,28.393 23.235,28.393 L13.158,28.393 C12.056,28.393 11.171,28.321 10.452,28.108 C9.778,27.908 9.287,27.605 8.875,27.289 C8.163,26.741 7.66,25.962 7.443,25.409 C7.005,24.295 7,23.031 7,22.235 L7,12.158 C7,11.362 7.004,10.098 7.443,8.984 C7.661,8.431 8.163,7.653 8.875,7.104 C9.286,6.788 9.777,6.485 10.452,6.285 C11.171,6.072 12.056,6 13.158,6 L23.235,6 C24.337,6 25.222,6.072 25.941,6.285 C26.615,6.485 27.106,6.788 27.518,7.104 C28.23,7.652 28.733,8.431 28.95,8.984 C29.388,10.098 29.393,11.362 29.393,12.158 L29.393,22.235 C29.393,23.031 29.389,24.295 28.95,25.409 Z" id="XMLID_20_" stroke="#AFAFAF" stroke-width="0.5"></path>
        </g>
    </g>
</svg>