<?xml version="1.0" encoding="UTF-8"?>
<svg width="133px" height="35px" viewBox="0 0 133 35" version="1.1" xmlns="http://www.w3.org/2000/svg" xmlns:xlink="http://www.w3.org/1999/xlink">
    <!-- Generator: Sketch 49 (51002) - http://www.bohemiancoding.com/sketch -->
    <title>podlive</title>
    <desc>Created with Sketch.</desc>
    <defs>
        <linearGradient x1="943.203387%" y1="524.47358%" x2="943.203387%" y2="-424.565024%" id="linearGradient-1">
            <stop stop-color="#6F31D1" offset="0%"></stop>
            <stop stop-color="#AC00CC" offset="100%"></stop>
        </linearGradient>
        <linearGradient x1="765.796467%" y1="298.144537%" x2="765.796467%" y2="-199.409802%" id="linearGradient-2">
            <stop stop-color="#6F31D1" offset="0%"></stop>
            <stop stop-color="#AC00CC" offset="100%"></stop>
        </linearGradient>
        <linearGradient x1="586.889213%" y1="515.991035%" x2="586.889213%" y2="-419.499123%" id="linearGradient-3">
            <stop stop-color="#6F31D1" offset="0%"></stop>
            <stop stop-color="#AC00CC" offset="100%"></stop>
        </linearGradient>
        <linearGradient x1="408.908147%" y1="298.812571%" x2="408.908147%" y2="-200.063659%" id="linearGradient-4">
            <stop stop-color="#6F31D1" offset="0%"></stop>
            <stop stop-color="#AC00CC" offset="100%"></stop>
        </linearGradient>
        <linearGradient x1="229.54519%" y1="144.478031%" x2="229.54519%" y2="-45.1895317%" id="linearGradient-5">
            <stop stop-color="#6F31D1" offset="0%"></stop>
            <stop stop-color="#AC00CC" offset="100%"></stop>
        </linearGradient>
        <linearGradient x1="51.2721755%" y1="114.023372%" x2="51.2721755%" y2="-14.1903172%" id="linearGradient-6">
            <stop stop-color="#6F31D1" offset="0%"></stop>
            <stop stop-color="#AC00CC" offset="100%"></stop>
        </linearGradient>
        <linearGradient x1="-127.009534%" y1="520.741909%" x2="-127.009534%" y2="-425.432123%" id="linearGradient-7">
            <stop stop-color="#6F31D1" offset="0%"></stop>
            <stop stop-color="#AC00CC" offset="100%"></stop>
        </linearGradient>
        <linearGradient x1="-306.363796%" y1="187.310902%" x2="-306.363796%" y2="-88.0013335%" id="linearGradient-8">
            <stop stop-color="#6F31D1" offset="0%"></stop>
            <stop stop-color="#AC00CC" offset="100%"></stop>
        </linearGradient>
        <linearGradient x1="-484.346939%" y1="139.654424%" x2="-484.346939%" y2="-39.6717024%" id="linearGradient-9">
            <stop stop-color="#6F31D1" offset="0%"></stop>
            <stop stop-color="#AC00CC" offset="100%"></stop>
        </linearGradient>
        <linearGradient x1="-663.999767%" y1="239.352111%" x2="-663.999767%" y2="-141.700447%" id="linearGradient-10">
            <stop stop-color="#6F31D1" offset="0%"></stop>
            <stop stop-color="#AC00CC" offset="100%"></stop>
        </linearGradient>
        <linearGradient x1="-843.203387%" y1="523.329297%" x2="-843.203387%" y2="-425.709307%" id="linearGradient-11">
            <stop stop-color="#6F31D1" offset="0%"></stop>
            <stop stop-color="#AC00CC" offset="100%"></stop>
        </linearGradient>
    </defs>
    <g id="Page-1" stroke="none" stroke-width="1" fill="none" fill-rule="evenodd">
        <g id="podlive">
            <path d="M132.781,9.079 C132.781,8.749 132.781,8.419 132.777,8.089 C132.753,7.369 132.71,6.648 132.579,5.937 C132.456,5.216 132.241,4.544 131.912,3.89 C131.58,3.246 131.153,2.656 130.641,2.147 C130.134,1.638 129.544,1.21 128.903,0.881 C128.243,0.548 127.573,0.332 126.851,0.206 C126.145,0.078 125.422,0.035 124.702,0.017 C124.373,0.012 124.038,0.006 123.71,0.003 C123.324,0 122.932,0 122.546,0 L10.25,0 C9.857,0 9.467,0 9.074,0.002 C8.745,0.005 8.418,0.011 8.086,0.016 C7.37,0.035 6.646,0.078 5.932,0.206 C5.212,0.333 4.543,0.548 3.888,0.881 C3.244,1.21 2.656,1.639 2.148,2.148 C1.633,2.656 1.207,3.246 0.881,3.89 C0.547,4.544 0.334,5.216 0.209,5.937 C0.079,6.648 0.035,7.369 0.016,8.089 C0.006,8.419 0.005,8.749 0,9.079 C0,9.469 0,9.859 0,10.252 L0,23.761 C0,24.158 0,24.547 0,24.938 C0.005,25.271 0.006,25.596 0.016,25.928 C0.034,26.649 0.079,27.37 0.209,28.081 C0.334,28.802 0.547,29.476 0.881,30.128 C1.207,30.769 1.633,31.359 2.147,31.864 C2.656,32.377 3.243,32.805 3.888,33.13 C4.543,33.467 5.212,33.679 5.932,33.809 C6.646,33.938 7.37,33.98 8.086,34 C8.418,34.007 8.745,34.011 9.074,34.011 C9.467,34.013 9.857,34.013 10.251,34.013 L122.546,34.013 C122.932,34.013 123.324,34.013 123.711,34.011 C124.039,34.011 124.373,34.007 124.703,34 C125.423,33.98 126.146,33.938 126.852,33.809 C127.574,33.679 128.244,33.467 128.904,33.13 C129.546,32.804 130.136,32.377 130.642,31.864 C131.154,31.359 131.581,30.769 131.913,30.128 C132.242,29.476 132.456,28.802 132.58,28.081 C132.711,27.37 132.754,26.649 132.778,25.928 C132.782,25.596 132.782,25.271 132.782,24.938 C132.792,24.547 132.792,24.159 132.792,23.761 L132.792,10.253 C132.791,9.86 132.791,9.469 132.781,9.079 Z" id="XMLID_43_" fill="#777878" fill-rule="nonzero"></path>
            <path d="M132.125,23.761 C132.125,24.153 132.125,24.536 132.116,24.938 C132.116,25.266 132.116,25.591 132.111,25.908 C132.093,26.529 132.054,27.258 131.924,27.968 C131.809,28.638 131.611,29.247 131.321,29.823 C131.017,30.408 130.633,30.938 130.169,31.399 C129.711,31.858 129.184,32.243 128.599,32.542 C128.03,32.832 127.418,33.033 126.734,33.157 C126.024,33.282 125.299,33.318 124.689,33.337 C124.361,33.343 124.033,33.348 123.706,33.348 C123.32,33.35 122.929,33.35 122.545,33.35 L10.25,33.35 C9.858,33.35 9.469,33.35 9.073,33.348 C8.748,33.348 8.426,33.344 8.105,33.337 C7.488,33.319 6.762,33.283 6.047,33.157 C5.365,33.034 4.757,32.832 4.189,32.542 C3.609,32.248 3.082,31.861 2.614,31.393 C2.155,30.938 1.772,30.411 1.472,29.826 C1.182,29.255 0.983,28.648 0.861,27.961 C0.727,27.225 0.694,26.48 0.68,25.908 C0.672,25.681 0.669,25.452 0.667,25.223 L0.663,24.938 L0.663,23.761 L0.663,10.253 L0.663,9.088 L0.669,8.79 C0.671,8.564 0.674,8.336 0.682,8.105 C0.696,7.538 0.729,6.793 0.864,6.052 C0.984,5.367 1.183,4.76 1.475,4.19 C1.773,3.603 2.156,3.076 2.619,2.618 C3.083,2.154 3.611,1.77 4.191,1.473 C4.766,1.181 5.375,0.978 6.047,0.859 C6.777,0.73 7.529,0.697 8.097,0.679 L9.074,0.665 C9.468,0.662 9.858,0.662 10.249,0.662 L122.544,0.662 C122.928,0.662 123.319,0.662 123.703,0.665 L123.757,0.667 L124.681,0.679 C125.256,0.696 126.008,0.73 126.732,0.859 C127.408,0.978 128.017,1.18 128.597,1.473 C129.181,1.771 129.709,2.155 130.168,2.618 C130.63,3.079 131.014,3.607 131.315,4.189 C131.608,4.768 131.807,5.378 131.921,6.058 C132.051,6.759 132.09,7.49 132.108,8.103 C132.113,8.428 132.113,8.754 132.113,9.092 C132.122,9.479 132.122,9.863 132.122,10.252 L132.122,23.761 L132.125,23.761 Z" id="XMLID_42_" fill="#FFFFFF" fill-rule="nonzero"></path>
            <text id="Podlive" font-family="SFProText-Medium, SF Pro Text" font-size="14" font-weight="400" letter-spacing="-0.298666656" fill="#000000">
                <tspan x="33" y="27">Podlive</tspan>
            </text>
            <text id="Live-Hören-mit" font-family="SFProText-Regular, SF Pro Text" font-size="9" font-weight="normal" letter-spacing="-0.319999993" fill="#777878">
                <tspan x="33" y="13">Live Hören mit</tspan>
            </text>
            <g id="App-Icon" transform="translate(7.000000, 6.000000)">
                <rect id="App-Icon-Mask-1536x1536" fill="#FFFFFF" x="0" y="0" width="23" height="23"></rect>
                <rect id="Rectangle-2" fill="#FFFFFF" x="0" y="0" width="23" height="23"></rect>
                <g id="AppIcon" stroke-width="1" transform="translate(2.815104, 3.458984)">
                    <path d="M0.943359375,7.33927055 C0.943359375,7.1232693 0.758213562,6.94791667 0.530148961,6.94791667 L0.413210414,6.94791667 C0.185145813,6.94791667 0,7.1232693 0,7.33927055 L0,8.66789091 C0,8.88386607 0.185145813,9.05924479 0.413210414,9.05924479 L0.530148961,9.05924479 C0.758213562,9.05924479 0.943359375,8.88386607 0.943359375,8.66789091 L0.943359375,7.33927055 Z" id="Rectangle-1-copy" fill="url(#linearGradient-1)"></path>
                    <path d="M2.515625,6.41345389 C2.515625,6.18779749 2.33047919,6.00455729 2.10241459,6.00455729 L1.98547604,6.00455729 C1.75741144,6.00455729 1.57226562,6.18779749 1.57226562,6.41345389 L1.57226562,9.80334299 C1.57226562,10.0290266 1.75741144,10.2122396 1.98547604,10.2122396 L2.10241459,10.2122396 C2.33047919,10.2122396 2.515625,10.0290266 2.515625,9.80334299 L2.515625,6.41345389 Z" id="Rectangle-1-copy-3" fill="url(#linearGradient-2)"></path>
                    <path d="M4.20768229,7.3336836 C4.20768229,7.12079169 4.02283336,6.94791667 3.79513446,6.94791667 L3.67687075,6.94791667 C3.44917185,6.94791667 3.26432292,7.12079169 3.26432292,7.3336836 L3.26432292,8.67347786 C3.26432292,8.88636977 3.44917185,9.05924479 3.67687075,9.05924479 L3.79513446,9.05924479 C4.02283336,9.05924479 4.20768229,8.88636977 4.20768229,8.67347786 L4.20768229,7.3336836 Z" id="Rectangle-1-copy-4" fill="url(#linearGradient-3)"></path>
                    <path d="M5.88476562,6.41454024 C5.88476562,6.18825698 5.69976567,6.00455729 5.47188074,6.00455729 L5.35429113,6.00455729 C5.1264062,6.00455729 4.94140625,6.18825698 4.94140625,6.41454024 L4.94140625,9.80225664 C4.94140625,10.0285399 5.1264062,10.2122396 5.35429113,10.2122396 L5.47188074,10.2122396 C5.69976567,10.2122396 5.88476562,10.0285399 5.88476562,9.80225664 L5.88476562,6.41454024 Z" id="Rectangle-1-copy-5" fill="url(#linearGradient-4)"></path>
                    <path d="M7.47200521,3.04090382 C7.47200521,2.81710194 7.28712877,2.63541667 7.05945738,2.63541667 L6.94119366,2.63541667 C6.71349477,2.63541667 6.52864583,2.81710194 6.52864583,3.04090382 L6.52864583,13.1758931 C6.52864583,13.3996679 6.71349477,13.5813802 6.94119366,13.5813802 L7.05945738,13.5813802 C7.28712877,13.5813802 7.47200521,13.3996679 7.47200521,13.1758931 L7.47200521,3.04090382 Z" id="Rectangle-1-copy-6" fill="url(#linearGradient-5)"></path>
                    <path d="M9.14908854,0.403471932 C9.14908854,0.180782324 8.96408859,0 8.73620366,0 L8.61861405,0 C8.39072912,0 8.20572917,0.180782324 8.20572917,0.403471932 L8.20572917,15.7085072 C8.20572917,15.9311968 8.39072912,16.1119792 8.61861405,16.1119792 L8.73620366,16.1119792 C8.96408859,16.1119792 9.14908854,15.9311968 9.14908854,15.7085072 L9.14908854,0.403471932 Z" id="Rectangle-1-copy-7" fill="url(#linearGradient-6)"></path>
                    <path d="M10.7363281,7.33808929 C10.7363281,7.12274001 10.5514738,6.94791667 10.3237683,6.94791667 L10.2055286,6.94791667 C9.97782307,6.94791667 9.79296875,7.12274001 9.79296875,7.33808929 L9.79296875,8.66907217 C9.79296875,8.88439543 9.97782307,9.05924479 10.2055286,9.05924479 L10.3237683,9.05924479 C10.5514738,9.05924479 10.7363281,8.88439543 10.7363281,8.66907217 L10.7363281,7.33808929 Z" id="Rectangle-1-copy-8" fill="url(#linearGradient-7)"></path>
                    <path d="M12.4134115,4.71992032 C12.4134115,4.49507863 12.2284115,4.3125 12.0005266,4.3125 L11.882937,4.3125 C11.655052,4.3125 11.4700521,4.49507863 11.4700521,4.71992032 L11.4700521,11.4819026 C11.4700521,11.7067715 11.655052,11.8893229 11.882937,11.8893229 L12.0005266,11.8893229 C12.2284115,11.8893229 12.4134115,11.7067715 12.4134115,11.4819026 L12.4134115,4.71992032 Z" id="Rectangle-1-copy-9" fill="url(#linearGradient-8)"></path>
                    <path d="M14.1054688,2.61840467 C14.1054688,2.39638461 13.9206198,2.21614583 13.6929209,2.21614583 L13.5746572,2.21614583 C13.3469858,2.21614583 13.1621094,2.39638461 13.1621094,2.61840467 L13.1621094,13.298913 C13.1621094,13.5209063 13.3469858,13.7011719 13.5746572,13.7011719 L13.6929209,13.7011719 C13.9206198,13.7011719 14.1054688,13.5209063 14.1054688,13.298913 L14.1054688,2.61840467 Z" id="Rectangle-1-copy-10" fill="url(#linearGradient-9)"></path>
                    <path d="M15.7825521,5.77573026 C15.7825521,5.5549132 15.5975521,5.37565104 15.3696672,5.37565104 L15.2520776,5.37565104 C15.0241927,5.37565104 14.8391927,5.5549132 14.8391927,5.77573026 L14.8391927,10.3512229 C14.8391927,10.5720399 15.0241927,10.7513021 15.2520776,10.7513021 L15.3696672,10.7513021 C15.5975521,10.7513021 15.7825521,10.5720399 15.7825521,10.3512229 L15.7825521,5.77573026 Z" id="Rectangle-1-copy-11" fill="url(#linearGradient-10)"></path>
                    <path d="M17.3697917,7.33927055 C17.3697917,7.12329539 17.1846459,6.94791667 16.9565813,6.94791667 L16.8396427,6.94791667 C16.6115781,6.94791667 16.4264323,7.12329539 16.4264323,7.33927055 L16.4264323,8.66789091 C16.4264323,8.88389216 16.6115781,9.05924479 16.8396427,9.05924479 L16.9565813,9.05924479 C17.1846459,9.05924479 17.3697917,8.88389216 17.3697917,8.66789091 L17.3697917,7.33927055 Z" id="Rectangle-1-copy-12" fill="url(#linearGradient-11)"></path>
                </g>
            </g>
            <path d="M28.95,25.409 C28.732,25.962 28.23,26.74 27.518,27.289 C27.107,27.606 26.616,27.908 25.941,28.108 C25.222,28.321 24.337,28.393 23.235,28.393 L13.158,28.393 C12.056,28.393 11.171,28.321 10.452,28.108 C9.778,27.908 9.287,27.605 8.875,27.289 C8.163,26.741 7.66,25.962 7.443,25.409 C7.005,24.295 7,23.031 7,22.235 L7,12.158 C7,11.362 7.004,10.098 7.443,8.984 C7.661,8.431 8.163,7.653 8.875,7.104 C9.286,6.788 9.777,6.485 10.452,6.285 C11.171,6.072 12.056,6 13.158,6 L23.235,6 C24.337,6 25.222,6.072 25.941,6.285 C26.615,6.485 27.106,6.788 27.518,7.104 C28.23,7.652 28.733,8.431 28.95,8.984 C29.388,10.098 29.393,11.362 29.393,12.158 L29.393,22.235 C29.393,23.031 29.389,24.295 28.95,25.409 Z" id="XMLID_20_" stroke="#AFAFAF" stroke-width="0.5"></path>
        </g>
    </g>
</svg>